<svg width="17" height="16" viewBox="0 0 17 16" fill="none" xmlns="http://www.w3.org/2000/svg">
<g id="arrow / arrow_right">
<path id="icon" d="M3.5 8.99326L11.086 8.99326L8.793 11.2831C8.69749 11.3752 8.62131 11.4854 8.5689 11.6072C8.51649 11.7291 8.4889 11.8601 8.48775 11.9927C8.4866 12.1253 8.5119 12.2568 8.56218 12.3795C8.61246 12.5023 8.68671 12.6137 8.7806 12.7075C8.8745 12.8013 8.98615 12.8754 9.10905 12.9256C9.23194 12.9758 9.36362 13.0011 9.4964 13C9.62918 12.9988 9.7604 12.9713 9.8824 12.9189C10.0044 12.8666 10.1148 12.7905 10.207 12.6951L14.207 8.70066C14.3001 8.6079 14.374 8.4977 14.4244 8.37638C14.4748 8.25506 14.5008 8.125 14.5008 7.99364C14.5008 7.86229 14.4748 7.73223 14.4244 7.61091C14.374 7.48958 14.3001 7.37938 14.207 7.28662L10.207 3.29215C10.0192 3.1049 9.76466 2.99981 9.49929 3C9.23393 3.00019 8.97951 3.10564 8.792 3.29315C8.60449 3.48066 8.49926 3.73488 8.49944 3.99988C8.49963 4.26488 8.60523 4.51895 8.793 4.70619L11.086 6.99602L3.5 6.99602C3.23478 6.99602 2.98043 7.10123 2.79289 7.28851C2.60536 7.47579 2.5 7.72979 2.5 7.99464C2.5 8.25949 2.60536 8.51349 2.79289 8.70077C2.98043 8.88805 3.23478 8.99326 3.5 8.99326Z" fill="white"/>
</g>
</svg>
