<svg width="16" height="16" viewBox="0 0 16 16" fill="none" xmlns="http://www.w3.org/2000/svg">
<g id="arrow / arrow_left">
<path id="icon" d="M13.001 8.99326L5.41498 8.99326L7.70798 11.2831C7.80349 11.3752 7.87967 11.4854 7.93208 11.6072C7.98449 11.7291 8.01207 11.8601 8.01323 11.9927C8.01438 12.1253 7.98908 12.2568 7.9388 12.3795C7.88852 12.5023 7.81426 12.6137 7.72037 12.7075C7.62648 12.8013 7.51483 12.8754 7.39193 12.9256C7.26903 12.9758 7.13735 13.0011 7.00458 13C6.8718 12.9988 6.74058 12.9713 6.61857 12.9189C6.49657 12.8666 6.38622 12.7905 6.29398 12.6951L2.29398 8.70066C2.20085 8.6079 2.12696 8.4977 2.07655 8.37638C2.02614 8.25506 2.00019 8.125 2.00019 7.99364C2.00019 7.86229 2.02614 7.73223 2.07655 7.61091C2.12696 7.48958 2.20085 7.37938 2.29398 7.28662L6.29398 3.29215C6.48175 3.1049 6.73632 2.99981 7.00168 3C7.26705 3.00019 7.52147 3.10564 7.70898 3.29315C7.89648 3.48066 8.00172 3.73488 8.00153 3.99988C8.00135 4.26488 7.89575 4.51895 7.70798 4.70619L5.41498 6.99602L13.001 6.99602C13.2662 6.99602 13.5205 7.10123 13.7081 7.28851C13.8956 7.47579 14.001 7.72979 14.001 7.99464C14.001 8.25949 13.8956 8.51349 13.7081 8.70077C13.5205 8.88805 13.2662 8.99326 13.001 8.99326Z" fill="black"/>
</g>
</svg>
