<svg width="178" height="23" viewBox="0 0 178 23" fill="none" xmlns="http://www.w3.org/2000/svg">
<g clip-path="url(#clip0_117_4222)">
<path d="M0 16.2339C5.0821 16.2339 7.0942 8.11692 12.1754 8.11692V0C7.0942 0 5.0821 8.11692 0 8.11692V16.2339Z" fill="#F50032"/>
<path d="M12.1841 16.2338C17.2653 16.2338 19.2782 8.1168 24.3594 8.1168V-0.00012207C19.2782 -0.00012207 17.2653 8.1168 12.1841 8.1168V16.2338Z" fill="#F50032"/>
<path d="M24.3604 16.2339C25.4368 16.2339 26.469 15.8064 27.2301 15.0452C27.9912 14.2841 28.4188 13.2518 28.4188 12.1755C28.4188 11.0991 27.9912 10.0668 27.2301 9.3057C26.469 8.54459 25.4368 8.117 24.3604 8.117V16.2339Z" fill="#F50032"/>
</g>
<g clip-path="url(#clip1_117_4222)">
<path d="M51.0174 -0.00012207H57.4181V16.2951H53.2282V3.37535L49.7827 16.2951H45.4047L42.2612 3.47167V16.2951H38.8901V-0.00012207H45.4091L48.0359 11.1289L51.0174 -0.00012207Z" fill="#F50032"/>
<path d="M68.0131 4.65851H71.9534L64.9398 20.9537H61.0958L63.1447 16.2254L58.1538 4.65851H62.5318L65.093 11.7116L68.0131 4.65851Z" fill="#F50032"/>
<path d="M71.853 12.5038H76.2749C76.3231 13.7822 77.0191 14.6665 78.372 14.6665C79.2782 14.6665 79.9086 14.2944 79.9086 13.664C79.9086 12.7884 79.033 12.5257 77.4877 12.0353L75.3686 11.383C73.2014 10.6869 72.0851 9.56611 72.0851 7.88056C72.0851 5.59521 74.2041 4.29492 77.9298 4.29492C81.5592 4.29492 83.6782 5.60835 83.9583 7.99439H79.9086C79.8651 7.50437 79.6304 7.05125 79.2549 6.73326C78.8796 6.41528 78.394 6.25806 77.9035 6.2957C76.9491 6.2957 76.5069 6.73351 76.5069 7.20196C76.5069 7.97249 77.4877 8.27457 78.8361 8.69487L80.9769 9.36909C82.1897 9.74123 84.3305 10.5556 84.3305 12.8366C84.3305 15.1175 82.1897 16.676 78.1619 16.676C74.4142 16.6673 72.2252 15.2007 71.853 12.5038Z" fill="#F50032"/>
<path d="M92.4775 7.00562H90.4286V12.6971C90.4286 13.7434 90.5688 13.8835 92.1054 13.8835H92.4775V16.3046H89.8507C87.0356 16.3046 86.2213 15.4903 86.2213 12.3031V7.00562H84.8159V4.6765H86.2388V2.11533L90.4286 0.486694V4.6765H92.4775V7.00562Z" fill="#F50032"/>
<path d="M105.743 11.106H97.5559C97.6478 13.9431 98.3483 14.5734 99.4647 14.5734C100.511 14.5734 101.05 13.9211 101.19 12.5026H105.519C105.239 14.9456 103.304 16.6662 99.4647 16.6662C95.0121 16.6662 93.1777 14.0087 93.1777 10.5938C93.1777 7.00819 95.0647 4.28503 99.5785 4.28503C103.422 4.28503 105.747 6.7061 105.747 10.6639L105.743 11.106ZM97.6652 9.00895H101.251V8.93891C101.251 6.9863 100.415 6.37775 99.5522 6.37775C98.3176 6.37775 97.7354 7.56419 97.6652 9.00895Z" fill="#F50032"/>
<path d="M118.676 8.49673V16.294H114.487V9.19283C114.487 7.76996 114.049 7.07386 112.95 7.07386C111.851 7.07386 111.251 7.84001 111.251 9.7007V16.2677H107.061V6.81993C107.061 6.28581 107.061 5.21319 107.013 4.65717H111.181V6.21577C111.715 5.09936 112.932 4.28503 114.789 4.28503C117.28 4.28503 118.676 5.54153 118.676 8.49673Z" fill="#F50032"/>
<path d="M129.677 13.4317H137.067V16.2951H125.247V-0.00012207H129.668L129.677 13.4317Z" fill="#F50032"/>
<path d="M145.715 16.2953V14.6666C145.041 15.8094 143.876 16.4617 141.941 16.4617C139.288 16.4617 137.848 15.1089 137.848 13.0162C137.848 10.7571 139.599 10.0347 142.151 9.51369L143.202 9.30354C145.085 8.93141 145.645 8.62933 145.645 7.72307C145.645 6.90875 145.133 6.37024 144.2 6.37024C143.983 6.34501 143.763 6.36922 143.557 6.44104C143.35 6.51287 143.163 6.63046 143.008 6.785C142.854 6.93955 142.736 7.12705 142.664 7.33347C142.592 7.5399 142.568 7.7599 142.593 7.97699H138.272C138.386 5.4421 140.273 4.27753 144.231 4.27753C148.329 4.27753 149.747 5.69602 149.747 8.13898V14.4478C149.747 15.2139 149.747 15.8444 149.817 16.3085L145.715 16.2953ZM145.553 11.9654V10.5688C145.247 10.7089 144.874 10.849 144.27 11.0592L143.92 11.1774C142.782 11.5495 142.221 11.8034 142.221 12.644C142.221 13.4101 142.734 13.9574 143.736 13.9574C144.892 13.9443 145.544 13.1781 145.544 11.9654H145.553Z" fill="#F50032"/>
<path d="M163.665 10.3846C163.665 13.8521 161.8 16.4351 158.412 16.4351C157.865 16.4546 157.32 16.3568 156.815 16.1485C156.309 15.9401 155.853 15.6257 155.478 15.2268L155.155 16.2951H151.429V-0.00012207H155.619V5.84459C155.982 5.35476 156.456 4.95811 157.003 4.68717C157.549 4.41624 158.152 4.27876 158.762 4.286C162.19 4.286 163.665 6.86905 163.665 10.3846ZM159.078 10.3846C159.078 7.80158 158.359 6.72895 157.265 6.72895C156.004 6.72895 155.513 7.80158 155.513 10.3846C155.513 12.4774 155.999 13.9922 157.265 13.9922C158.604 14.0096 159.091 12.4774 159.091 10.3846H159.078Z" fill="#F50032"/>
<path d="M164.364 12.5038H168.786C168.834 13.7822 169.531 14.6665 170.884 14.6665C171.789 14.6665 172.416 14.2944 172.416 13.664C172.416 12.7884 171.54 12.5257 169.995 12.0353L167.88 11.383C165.692 10.6869 164.597 9.56611 164.597 7.88056C164.597 5.59521 166.716 4.29492 170.441 4.29492C174.071 4.29492 176.189 5.60835 176.47 7.99439H172.42C172.378 7.50475 172.144 7.05162 171.77 6.73353C171.395 6.41545 170.91 6.2581 170.42 6.2957C169.465 6.2957 169.023 6.73351 169.023 7.20196C169.023 7.97249 169.999 8.27457 171.352 8.69487L173.493 9.36909C174.706 9.74123 176.847 10.5556 176.847 12.8366C176.847 15.1175 174.706 16.676 170.678 16.676C166.926 16.6673 164.737 15.2007 164.364 12.5038Z" fill="#F50032"/>
</g>
<defs>
<clipPath id="clip0_117_4222">
<rect width="29.0859" height="16.2881" fill="white"/>
</clipPath>
<clipPath id="clip1_117_4222">
<rect width="139.612" height="22.1053" fill="white" transform="translate(38.394)"/>
</clipPath>
</defs>
</svg>
