<svg width="24" height="24" viewBox="0 0 24 24" fill="none" xmlns="http://www.w3.org/2000/svg">
<g id="search">
<path id="Union" fill-rule="evenodd" clip-rule="evenodd" d="M11 5.75C8.1005 5.75 5.75 8.1005 5.75 11C5.75 13.8995 8.1005 16.25 11 16.25C13.8995 16.25 16.25 13.8995 16.25 11C16.25 8.1005 13.8995 5.75 11 5.75ZM3.75 11C3.75 6.99594 6.99594 3.75 11 3.75C15.0041 3.75 18.25 6.99594 18.25 11C18.25 12.6414 17.7045 14.1555 16.7849 15.3707L19.9571 18.5429C20.3476 18.9334 20.3476 19.5666 19.9571 19.9571C19.5666 20.3476 18.9334 20.3476 18.5429 19.9571L15.3707 16.7849C14.1555 17.7045 12.6414 18.25 11 18.25C6.99594 18.25 3.75 15.0041 3.75 11Z" fill="#9C9FA4"/>
</g>
</svg>
