<svg width="8" height="13" viewBox="0 0 8 13" fill="none" xmlns="http://www.w3.org/2000/svg">
<g id="sui-symbol">
<path id="Union" fill-rule="evenodd" clip-rule="evenodd" d="M0.757564 9.97121C1.43432 11.1435 2.6465 11.8433 4 11.8433C5.3535 11.8433 6.56546 11.1435 7.24244 9.97121C7.91919 8.79915 7.91919 7.3996 7.24244 6.22731L4.39065 1.28795C4.21702 0.987229 3.78298 0.987229 3.60935 1.28795L0.757564 6.22731C0.0808121 7.39937 0.0808121 8.79892 0.757564 9.97121ZM3.19665 3.63782L3.80467 2.58467C3.89149 2.4343 4.10851 2.4343 4.19532 2.58467L6.53446 6.63623C6.9642 7.38055 7.04486 8.24202 6.77645 9.03032C6.7485 8.9017 6.70944 8.77014 6.65678 8.63721C6.33368 7.8218 5.60312 7.19261 4.48497 6.76692C3.71622 6.47532 3.22552 6.04645 3.02613 5.49215C2.76931 4.7777 3.03755 3.99862 3.19665 3.63782ZM2.15985 5.43363L1.46554 6.63623C0.936496 7.55255 0.936496 8.64643 1.46554 9.56274C1.99459 10.4791 2.94191 11.0259 4 11.0259C4.70276 11.0259 5.35684 10.7845 5.87188 10.3538C5.93905 10.1847 6.14705 9.56567 5.89008 8.92767C5.65274 8.33854 5.08154 7.86824 4.19229 7.52951C3.18711 7.14822 2.53406 6.55294 2.25166 5.76076C2.21277 5.65169 2.18255 5.54239 2.15985 5.43363Z" fill="#F50032" stroke="#F50032" stroke-width="0.5"/>
</g>
</svg>
