<svg width="17" height="16" viewBox="0 0 17 16" fill="none" xmlns="http://www.w3.org/2000/svg">
<g id="Icons/16px/arrow-up-right" clip-path="url(#clip0_143_3178)">
<path id="Union" fill-rule="evenodd" clip-rule="evenodd" d="M6.37481 1.25406C7.25963 1.22076 8.13985 1.39282 8.94909 1.75668C9.75826 2.12051 10.4747 2.66632 11.0453 3.3519C11.4899 3.88601 11.837 4.49423 12.0727 5.14766H12.3206H12.3211C13.1987 5.14825 14.0492 5.44742 14.7385 5.99504C15.4274 6.54242 15.9156 7.30625 16.1294 8.16418C16.3432 9.02197 16.2714 9.92808 15.9245 10.7404C15.5776 11.553 14.9741 12.2277 14.2062 12.6553C13.8443 12.8568 13.3876 12.7268 13.1861 12.3649C12.9846 12.003 13.1146 11.5462 13.4765 11.3447C13.9498 11.0812 14.3269 10.6623 14.545 10.1514C14.7633 9.64024 14.8089 9.06835 14.674 8.52691C14.5391 7.9856 14.2322 7.50863 13.8054 7.1695C13.3789 6.83071 12.8565 6.64814 12.3206 6.64766L10.1931 4.71778C10.1008 4.57686 10.0004 4.44119 9.89244 4.3115C9.51953 3.86345 9.06464 3.49705 8.55517 3.23193L6.37481 1.25406ZM8.55474 3.23171L8.55517 3.23193L10.1931 4.71778L10.1936 4.71851L8.55474 3.23171ZM10.1936 4.71851L12.3201 6.64766L11.5188 6.64766C11.1755 6.64766 10.876 6.41454 10.7918 6.08171C10.6684 5.59434 10.4656 5.13368 10.1936 4.71851ZM8.55474 3.23171L6.37481 1.25406C5.49 1.28735 4.62481 1.52508 3.84437 1.94857C3.06401 2.37201 2.38922 2.96985 1.86985 3.69602C1.35052 4.42213 0.999845 5.25797 0.843188 6.14052C0.686536 7.02304 0.727778 7.93033 0.963952 8.79449C1.20014 9.65869 1.62539 10.4582 2.20884 11.1325C2.47987 11.4457 2.95351 11.4799 3.26674 11.2089C3.57998 10.9379 3.61419 10.4643 3.34317 10.151C2.90756 9.64758 2.58844 9.04871 2.41089 8.39904C2.23333 7.74935 2.20224 7.06667 2.3201 6.40268C2.43796 5.7387 2.7015 5.1117 3.08991 4.56863C3.47828 4.02562 3.98113 3.58096 4.55978 3.26697C5.13835 2.95302 5.77816 2.77757 6.43122 2.753C7.08426 2.72842 7.73474 2.85532 8.33396 3.12475C8.4086 3.15831 8.48222 3.19398 8.55474 3.23171ZM7.75 9.81066V14C7.75 14.4142 8.08579 14.75 8.5 14.75C8.91421 14.75 9.25 14.4142 9.25 14V9.81066L10.9697 11.5303C11.2626 11.8232 11.7374 11.8232 12.0303 11.5303C12.3232 11.2374 12.3232 10.7626 12.0303 10.4697L9.03033 7.46967C8.95842 7.39776 8.87555 7.34351 8.78709 7.30691C8.69866 7.27024 8.60169 7.25 8.5 7.25C8.39831 7.25 8.30134 7.27024 8.21291 7.30691C8.12445 7.34351 8.04158 7.39776 7.96967 7.46967L4.96967 10.4697C4.67678 10.7626 4.67678 11.2374 4.96967 11.5303C5.26256 11.8232 5.73744 11.8232 6.03033 11.5303L7.75 9.81066Z" fill="#9C9FA4"/>
</g>
<defs>
<clipPath id="clip0_143_3178">
<rect width="16" height="16" fill="white" transform="translate(0.5)"/>
</clipPath>
</defs>
</svg>
